<svg xmlns="http://www.w3.org/2000/svg" xmlns:xlink="http://www.w3.org/1999/xlink" width="40" zoomAndPan="magnify" viewBox="0 0 30 30.000001" height="40" preserveAspectRatio="xMidYMid meet" version="1.0"><defs><clipPath id="96e4a5f965"><path d="M 2.007812 1.523438 L 28.136719 1.523438 L 28.136719 27.652344 L 2.007812 27.652344 Z M 2.007812 1.523438 " clip-rule="nonzero"/></clipPath></defs><g clip-path="url(#96e4a5f965)"><path fill="#ffffff" d="M 7.886719 1.523438 L 22.242188 1.523438 C 23.867188 1.523438 25.335938 2.183594 26.40625 3.253906 C 27.464844 4.308594 28.136719 5.792969 28.136719 7.402344 L 28.136719 21.761719 C 28.136719 23.382812 27.464844 24.851562 26.40625 25.921875 C 25.335938 26.980469 23.867188 27.652344 22.242188 27.652344 L 7.886719 27.652344 C 6.277344 27.652344 4.792969 26.980469 3.738281 25.921875 C 2.667969 24.851562 2.007812 23.382812 2.007812 21.761719 L 2.007812 7.402344 C 2.007812 5.792969 2.667969 4.308594 3.738281 3.253906 C 4.792969 2.183594 6.277344 1.523438 7.886719 1.523438 Z M 22.242188 3.851562 L 7.886719 3.851562 C 6.90625 3.851562 6.019531 4.25 5.375 4.890625 C 4.734375 5.535156 4.335938 6.421875 4.335938 7.402344 L 4.335938 21.761719 C 4.335938 22.738281 4.734375 23.628906 5.375 24.269531 C 6.019531 24.929688 6.90625 25.328125 7.886719 25.328125 L 22.242188 25.328125 C 23.222656 25.328125 24.113281 24.929688 24.753906 24.269531 C 25.414062 23.628906 25.808594 22.738281 25.808594 21.761719 L 25.808594 7.402344 C 25.808594 6.421875 25.414062 5.535156 24.753906 4.890625 C 24.113281 4.25 23.222656 3.851562 22.242188 3.851562 Z M 22.242188 3.851562 " fill-opacity="1" fill-rule="nonzero"/></g><path fill="#ffffff" d="M 22.398438 6.085938 C 22.71875 6.085938 23.023438 6.207031 23.222656 6.421875 C 23.4375 6.636719 23.574219 6.925781 23.574219 7.25 C 23.574219 7.570312 23.4375 7.875 23.222656 8.074219 C 23.023438 8.289062 22.71875 8.425781 22.398438 8.425781 C 22.074219 8.425781 21.785156 8.289062 21.570312 8.074219 C 21.355469 7.875 21.234375 7.570312 21.234375 7.25 C 21.234375 6.925781 21.355469 6.636719 21.570312 6.421875 C 21.785156 6.207031 22.074219 6.085938 22.398438 6.085938 Z M 22.398438 6.085938 " fill-opacity="1" fill-rule="nonzero"/><path fill="#ffffff" d="M 15.066406 8.242188 C 16.824219 8.242188 18.402344 8.964844 19.550781 10.097656 C 20.699219 11.242188 21.417969 12.835938 21.417969 14.582031 C 21.417969 16.339844 20.699219 17.917969 19.550781 19.066406 C 18.402344 20.214844 16.824219 20.933594 15.066406 20.933594 C 13.320312 20.933594 11.726562 20.214844 10.578125 19.066406 C 9.445312 17.917969 8.726562 16.339844 8.726562 14.582031 C 8.726562 12.835938 9.445312 11.242188 10.578125 10.097656 C 11.726562 8.964844 13.320312 8.242188 15.066406 8.242188 Z M 17.898438 11.765625 C 17.175781 11.046875 16.167969 10.585938 15.066406 10.585938 C 13.960938 10.585938 12.96875 11.046875 12.25 11.765625 C 11.527344 12.484375 11.070312 13.480469 11.070312 14.582031 C 11.070312 15.683594 11.527344 16.695312 12.25 17.414062 C 12.96875 18.132812 13.960938 18.578125 15.066406 18.578125 C 16.167969 18.578125 17.175781 18.132812 17.898438 17.414062 C 18.617188 16.695312 19.058594 15.683594 19.058594 14.582031 C 19.058594 13.480469 18.617188 12.484375 17.898438 11.765625 Z M 17.898438 11.765625 " fill-opacity="1" fill-rule="nonzero"/></svg>