<svg xmlns="http://www.w3.org/2000/svg" xmlns:xlink="http://www.w3.org/1999/xlink" width="169" zoomAndPan="magnify" viewBox="0 0 126.75 126.749998" height="169" preserveAspectRatio="xMidYMid meet" version="1.0"><defs><clipPath id="d953dfa57e"><path d="M 6.640625 6.640625 L 119.667969 6.640625 L 119.667969 119.667969 L 6.640625 119.667969 Z M 6.640625 6.640625 " clip-rule="nonzero"/></clipPath></defs><g clip-path="url(#d953dfa57e)"><path fill="#ffffff" d="M 32.066406 6.640625 L 94.175781 6.640625 C 101.195312 6.640625 107.550781 9.488281 112.1875 14.125 C 116.753906 18.691406 119.667969 25.113281 119.667969 32.066406 L 119.667969 94.175781 C 119.667969 101.195312 116.753906 107.550781 112.1875 112.1875 C 107.550781 116.753906 101.195312 119.667969 94.175781 119.667969 L 32.066406 119.667969 C 25.113281 119.667969 18.691406 116.753906 14.125 112.1875 C 9.488281 107.550781 6.640625 101.195312 6.640625 94.175781 L 6.640625 32.066406 C 6.640625 25.113281 9.488281 18.691406 14.125 14.125 C 18.691406 9.488281 25.113281 6.640625 32.066406 6.640625 Z M 94.175781 16.707031 L 32.066406 16.707031 C 27.828125 16.707031 23.988281 18.425781 21.207031 21.207031 C 18.425781 23.988281 16.707031 27.828125 16.707031 32.066406 L 16.707031 94.175781 C 16.707031 98.414062 18.425781 102.253906 21.207031 105.035156 C 23.988281 107.882812 27.828125 109.605469 32.066406 109.605469 L 94.175781 109.605469 C 98.414062 109.605469 102.253906 107.882812 105.035156 105.035156 C 107.882812 102.253906 109.605469 98.414062 109.605469 94.175781 L 109.605469 32.066406 C 109.605469 27.828125 107.882812 23.988281 105.035156 21.207031 C 102.253906 18.425781 98.414062 16.707031 94.175781 16.707031 Z M 94.175781 16.707031 " fill-opacity="1" fill-rule="nonzero"/></g><path fill="#ffffff" d="M 94.839844 26.371094 C 96.230469 26.371094 97.554688 26.902344 98.414062 27.828125 C 99.339844 28.757812 99.9375 30.015625 99.9375 31.40625 C 99.9375 32.796875 99.339844 34.121094 98.414062 34.980469 C 97.554688 35.90625 96.230469 36.503906 94.839844 36.503906 C 93.449219 36.503906 92.191406 35.90625 91.261719 34.980469 C 90.335938 34.121094 89.804688 32.796875 89.804688 31.40625 C 89.804688 30.015625 90.335938 28.757812 91.261719 27.828125 C 92.191406 26.902344 93.449219 26.371094 94.839844 26.371094 Z M 94.839844 26.371094 " fill-opacity="1" fill-rule="nonzero"/><path fill="#ffffff" d="M 63.121094 35.710938 C 70.734375 35.710938 77.554688 38.820312 82.523438 43.722656 C 87.488281 48.6875 90.601562 55.574219 90.601562 63.121094 C 90.601562 70.734375 87.488281 77.554688 82.523438 82.523438 C 77.554688 87.488281 70.734375 90.601562 63.121094 90.601562 C 55.574219 90.601562 48.6875 87.488281 43.722656 82.523438 C 38.820312 77.554688 35.710938 70.734375 35.710938 63.121094 C 35.710938 55.574219 38.820312 48.6875 43.722656 43.722656 C 48.6875 38.820312 55.574219 35.710938 63.121094 35.710938 Z M 75.371094 50.9375 C 72.257812 47.828125 67.890625 45.839844 63.121094 45.839844 C 58.355469 45.839844 54.050781 47.828125 50.9375 50.9375 C 47.828125 54.050781 45.839844 58.355469 45.839844 63.121094 C 45.839844 67.890625 47.828125 72.257812 50.9375 75.371094 C 54.050781 78.484375 58.355469 80.402344 63.121094 80.402344 C 67.890625 80.402344 72.257812 78.484375 75.371094 75.371094 C 78.484375 72.257812 80.402344 67.890625 80.402344 63.121094 C 80.402344 58.355469 78.484375 54.050781 75.371094 50.9375 Z M 75.371094 50.9375 " fill-opacity="1" fill-rule="nonzero"/></svg>