<svg xmlns="http://www.w3.org/2000/svg" xmlns:xlink="http://www.w3.org/1999/xlink" width="60" zoomAndPan="magnify" viewBox="0 0 45 44.999999" height="60" preserveAspectRatio="xMidYMid meet" version="1.0"><defs><clipPath id="29355909b9"><path d="M 3.769531 0 L 41.222656 0 L 41.222656 45 L 3.769531 45 Z M 3.769531 0 " clip-rule="nonzero"/></clipPath></defs><g clip-path="url(#29355909b9)"><path fill="#000000" d="M 18.523438 44.878906 L 19.15625 44.878906 C 19.515625 44.835938 19.875 44.8125 20.238281 44.8125 C 20.71875 44.808594 21.078125 44.800781 21.316406 44.789062 C 21.851562 44.765625 22.339844 44.769531 22.78125 44.796875 C 23.324219 44.828125 23.894531 44.796875 24.445312 44.839844 C 24.773438 44.863281 25.097656 44.863281 25.425781 44.878906 L 25.460938 44.878906 C 25.636719 44.871094 25.8125 44.855469 25.984375 44.835938 C 26.191406 44.8125 26.390625 44.820312 26.597656 44.777344 C 26.683594 44.761719 26.769531 44.746094 26.851562 44.730469 C 27.253906 44.660156 27.597656 44.5 27.886719 44.257812 C 28.644531 43.613281 27.871094 42.617188 27.234375 42.335938 C 27.179688 42.3125 27.175781 42.28125 27.21875 42.238281 C 27.308594 42.152344 27.394531 42.058594 27.46875 41.964844 C 27.960938 41.339844 28.390625 40.667969 28.757812 39.945312 C 28.824219 39.816406 28.886719 39.699219 28.949219 39.59375 C 28.972656 39.550781 28.988281 39.554688 29 39.601562 C 29.152344 40.308594 29.308594 40.996094 29.464844 41.660156 C 29.597656 42.214844 29.738281 42.691406 29.890625 43.085938 C 30.140625 43.742188 30.507812 44.273438 31.210938 44.542969 C 32 44.84375 32.863281 44.902344 33.800781 44.714844 C 34.050781 44.664062 34.265625 44.574219 34.445312 44.441406 C 34.753906 44.21875 34.804688 43.855469 34.777344 43.492188 C 34.765625 43.296875 34.722656 43.128906 34.65625 42.992188 C 34.449219 42.554688 34.09375 42.292969 33.59375 42.203125 C 32.925781 42.085938 32.617188 41.816406 32.425781 41.136719 C 32.394531 41.039062 32.355469 40.972656 32.371094 40.863281 C 32.375 40.839844 32.375 40.816406 32.367188 40.792969 C 32.332031 40.695312 32.3125 40.59375 32.3125 40.492188 C 32.289062 39.875 32.304688 39.371094 32.351562 38.976562 C 32.386719 38.703125 32.355469 38.433594 32.40625 38.160156 C 32.449219 37.945312 32.414062 37.730469 32.464844 37.519531 C 32.496094 37.390625 32.511719 37.257812 32.503906 37.125 C 32.5 36.960938 32.566406 36.820312 32.570312 36.660156 C 32.570312 36.515625 32.589844 36.371094 32.628906 36.222656 C 32.644531 36.164062 32.628906 36.105469 32.636719 36.046875 C 32.800781 34.886719 32.960938 33.730469 33.121094 32.574219 C 33.167969 32.230469 33.226562 31.847656 33.296875 31.429688 C 33.539062 30.019531 33.992188 28.691406 34.652344 27.441406 C 35.308594 26.210938 36.089844 25.027344 36.84375 23.867188 C 37.535156 22.800781 38.132812 21.667969 38.355469 20.425781 C 38.386719 20.257812 38.40625 20.089844 38.414062 19.917969 C 38.421875 19.761719 38.433594 19.59375 38.445312 19.414062 C 38.472656 19.097656 38.40625 18.792969 38.410156 18.484375 C 38.414062 18.375 38.398438 18.269531 38.371094 18.167969 C 38.332031 18.03125 38.34375 17.894531 38.316406 17.753906 C 38.207031 17.242188 38.074219 16.714844 37.910156 16.175781 C 37.78125 15.761719 37.6875 15.324219 37.632812 14.886719 C 37.617188 14.765625 37.597656 14.644531 37.582031 14.523438 C 37.5625 14.402344 37.550781 14.285156 37.550781 14.167969 C 37.535156 13.617188 37.539062 13.113281 37.554688 12.65625 C 37.5625 12.453125 37.597656 12.207031 37.652344 11.917969 C 37.746094 11.4375 37.960938 10.976562 38.363281 10.722656 C 38.597656 10.574219 38.871094 10.421875 39.1875 10.265625 C 39.921875 9.902344 40.457031 9.382812 40.789062 8.707031 C 40.890625 8.5 40.945312 8.277344 40.953125 8.039062 C 40.960938 7.832031 41.105469 7.652344 41.167969 7.460938 C 41.230469 7.265625 41.238281 7.070312 41.191406 6.882812 C 41.179688 6.820312 41.140625 6.78125 41.082031 6.761719 C 40.929688 6.710938 40.78125 6.664062 40.640625 6.621094 C 40.054688 6.445312 39.652344 6.027344 39.542969 5.4375 C 39.433594 4.84375 39.035156 4.464844 38.523438 4.171875 C 37.9375 3.839844 37.304688 3.59375 36.625 3.433594 C 36.589844 3.425781 36.554688 3.421875 36.519531 3.425781 C 36.496094 3.425781 36.476562 3.421875 36.457031 3.410156 C 36.394531 3.371094 36.332031 3.355469 36.269531 3.363281 C 36.242188 3.367188 36.226562 3.355469 36.222656 3.328125 C 36.175781 3.042969 36.152344 2.769531 36.152344 2.511719 C 36.15625 2.234375 36.082031 1.984375 36.085938 1.710938 C 36.089844 1.542969 36.035156 1.390625 36.019531 1.222656 C 36.003906 1.082031 35.96875 0.929688 35.90625 0.765625 C 35.78125 0.421875 35.488281 0.417969 35.285156 0.691406 C 35.1875 0.824219 35.074219 0.949219 34.984375 1.085938 C 34.542969 1.78125 34.109375 2.5 33.679688 3.25 C 33.65625 3.292969 33.628906 3.296875 33.59375 3.257812 C 33.058594 2.6875 32.484375 2.097656 31.871094 1.5 C 31.476562 1.117188 31.085938 0.765625 30.695312 0.449219 C 30.433594 0.234375 30.011719 0 29.730469 0.277344 C 29.652344 0.355469 29.578125 0.515625 29.503906 0.757812 C 29.417969 1.050781 29.359375 1.347656 29.335938 1.644531 C 29.324219 1.804688 29.308594 1.957031 29.289062 2.097656 C 29.269531 2.25 29.257812 2.394531 29.253906 2.535156 C 29.238281 3.433594 29.195312 4.277344 29.253906 5.207031 C 29.253906 5.230469 29.25 5.25 29.234375 5.269531 C 28.519531 6.164062 27.960938 7.019531 27.871094 8.113281 C 27.808594 8.894531 27.945312 9.546875 28.167969 10.289062 C 28.34375 10.863281 28.398438 11.410156 28.328125 11.921875 C 28.214844 12.753906 27.804688 13.359375 27.09375 13.738281 C 26.855469 13.863281 26.628906 13.996094 26.40625 14.132812 C 26.015625 14.371094 25.699219 14.667969 25.445312 15.015625 C 25.242188 15.304688 25.039062 15.570312 24.839844 15.816406 C 24.425781 16.324219 23.777344 16.742188 23.199219 17.046875 C 21.871094 17.753906 20.820312 18.316406 19.683594 19.113281 C 17.375 20.738281 15.550781 23.082031 14.371094 25.675781 C 13.378906 27.859375 12.78125 30.191406 12.371094 32.613281 C 12.355469 32.722656 12.339844 32.832031 12.332031 32.949219 C 12.320312 33.089844 12.265625 33.21875 12.269531 33.359375 C 12.277344 33.554688 12.199219 33.726562 12.203125 33.914062 C 12.207031 34.214844 12.136719 34.503906 12.136719 34.804688 C 12.132812 35.296875 12.132812 35.796875 12.136719 36.300781 C 12.140625 36.4375 12.152344 36.574219 12.175781 36.714844 C 12.210938 36.914062 12.195312 37.109375 12.21875 37.3125 C 12.308594 38.0625 12.457031 38.832031 12.671875 39.613281 C 12.796875 40.089844 12.734375 40.480469 12.472656 40.789062 C 12.25 41.050781 11.976562 41.210938 11.652344 41.273438 C 11.007812 41.394531 10.40625 41.28125 9.851562 40.941406 C 8.492188 40.105469 7.683594 38.488281 7.339844 36.976562 C 7.289062 36.746094 7.238281 36.507812 7.195312 36.265625 C 7.171875 36.15625 7.164062 36.054688 7.160156 35.953125 C 7.15625 35.808594 7.097656 35.6875 7.09375 35.542969 C 7.089844 35.34375 7.101562 35.152344 7.074219 34.953125 C 7.007812 34.429688 7.078125 33.929688 7.09375 33.410156 C 7.097656 33.285156 7.109375 33.160156 7.125 33.039062 C 7.144531 32.917969 7.160156 32.789062 7.179688 32.65625 C 7.246094 32.152344 7.355469 31.636719 7.503906 31.109375 C 7.789062 30.101562 8.238281 29.203125 8.859375 28.414062 C 9.089844 28.113281 9.238281 27.890625 9.300781 27.734375 C 9.566406 27.0625 9.414062 26.054688 8.613281 25.839844 C 8.359375 25.769531 8 25.796875 7.742188 25.902344 C 7.125 26.160156 6.636719 26.640625 6.234375 27.191406 C 5.722656 27.898438 5.289062 28.6875 4.9375 29.558594 C 4.476562 30.710938 4.15625 31.898438 3.980469 33.121094 C 3.945312 33.367188 3.914062 33.609375 3.882812 33.84375 C 3.859375 34.054688 3.839844 34.285156 3.832031 34.539062 C 3.824219 34.78125 3.8125 35.023438 3.800781 35.261719 C 3.777344 35.78125 3.8125 36.3125 3.851562 36.875 C 3.898438 37.558594 4.015625 38.253906 4.203125 38.96875 C 4.476562 39.988281 4.863281 40.882812 5.371094 41.644531 C 5.941406 42.5 6.597656 43.148438 7.464844 43.675781 C 8.367188 44.222656 9.402344 44.582031 10.570312 44.757812 C 10.820312 44.792969 11.027344 44.8125 11.195312 44.8125 C 11.464844 44.8125 11.746094 44.886719 12.007812 44.855469 C 12.292969 44.824219 12.582031 44.824219 12.863281 44.78125 C 13.441406 44.695312 13.886719 44.496094 14.394531 44.300781 C 14.960938 44.085938 15.523438 44.109375 16.070312 44.375 C 16.5625 44.609375 17.09375 44.753906 17.660156 44.808594 C 17.949219 44.835938 18.234375 44.859375 18.523438 44.878906 Z M 18.523438 44.878906 " fill-opacity="1" fill-rule="nonzero"/></g></svg>